<?xml version="1.0" encoding="UTF-8"?>
<svg width="400" height="200" xmlns="http://www.w3.org/2000/svg">
    <!-- Sfondo -->
    <rect width="400" height="200" fill="#f8f9fa" rx="10" ry="10"/>

    <!-- Titolo -->
    <text x="200" y="30" font-family="Arial" font-size="16" text-anchor="middle" fill="#333">Progresso Moduli</text>

    <!-- Barre di progresso -->
    <rect x="50" y="50" width="300" height="20" fill="#e9ecef" rx="5" ry="5"/>
    <rect x="50" y="50" width="285" height="20" fill="#28a745" rx="5" ry="5"/>
    <text x="200" y="65" font-family="Arial" font-size="12" text-anchor="middle" fill="#fff">95% Core Features</text>

    <rect x="50" y="80" width="300" height="20" fill="#e9ecef" rx="5" ry="5"/>
    <rect x="50" y="80" width="270" height="20" fill="#17a2b8" rx="5" ry="5"/>
    <text x="200" y="95" font-family="Arial" font-size="12" text-anchor="middle" fill="#fff">90% Performance</text>

    <rect x="50" y="110" width="300" height="20" fill="#e9ecef" rx="5" ry="5"/>
    <rect x="50" y="110" width="255" height="20" fill="#ffc107" rx="5" ry="5"/>
    <text x="200" y="125" font-family="Arial" font-size="12" text-anchor="middle" fill="#333">85% Documentation</text>

    <rect x="50" y="140" width="300" height="20" fill="#e9ecef" rx="5" ry="5"/>
    <rect x="50" y="140" width="270" height="20" fill="#17a2b8" rx="5" ry="5"/>
    <text x="200" y="155" font-family="Arial" font-size="12" text-anchor="middle" fill="#fff">90% Test Coverage</text>

    <rect x="50" y="170" width="300" height="20" fill="#e9ecef" rx="5" ry="5"/>
    <rect x="50" y="170" width="285" height="20" fill="#28a745" rx="5" ry="5"/>
    <text x="200" y="185" font-family="Arial" font-size="12" text-anchor="middle" fill="#fff">95% Security</text>
</svg>
