<?xml version="1.0" encoding="UTF-8"?>
<svg xmlns="http://www.w3.org/2000/svg" viewBox="0 0 24 24" class="w-6 h-6">
  <style>
    @keyframes fade {
      0% { opacity: 0.8; }
      50% { opacity: 0.2; }
      100% { opacity: 0.8; }
    }
    @keyframes cross {
      0% { transform: scale(1); }
      50% { transform: scale(1.1); }
      100% { transform: scale(1); }
    }
    .calendar {
      fill: currentColor;
      transform-origin: center;
      opacity: 0.8;
    }
    .x {
      fill: currentColor;
      transform-origin: center;
    }
    svg:hover .calendar {
      animation: fade 2s infinite;
    }
    svg:hover .x {
      animation: cross 1.5s infinite;
    }
  </style>
  <path class="calendar" d="M19 3h-1V1h-2v2H8V1H6v2H5c-1.1 0-2 .9-2 2v14c0 1.1.9 2 2 2h14c1.1 0 2-.9 2-2V5c0-1.1-.9-2-2-2zm0 16H5V8h14v11z"/>
  <path class="x" d="M9 11l6 6M15 11l-6 6"/>
  <rect class="calendar" x="7" y="10" width="2" height="2"/>
  <rect class="calendar" x="11" y="10" width="2" height="2"/>
  <rect class="calendar" x="15" y="10" width="2" height="2"/>
</svg>
