<?xml version="1.0" encoding="UTF-8"?>
<svg xmlns="http://www.w3.org/2000/svg" viewBox="0 0 24 24" class="w-6 h-6">
  <style>
    @keyframes spin {
      0% { transform: rotate(0deg); }
      100% { transform: rotate(360deg); }
    }
    @keyframes pulse {
      0% { opacity: 0.8; }
      50% { opacity: 1; }
      100% { opacity: 0.8; }
    }
    .gear {
      fill: none;
      stroke: currentColor;
      stroke-width: 1.5;
      stroke-linecap: round;
      stroke-linejoin: round;
    }
    .person {
      fill: none;
      stroke: currentColor;
      stroke-width: 1.5;
      stroke-linecap: round;
      stroke-linejoin: round;
    }
    svg:hover .gear {
      animation: spin 4s linear infinite;
    }
    svg:hover .person {
      animation: pulse 2s infinite;
    }
  </style>
  <path class="person" d="M12 4a4 4 0 100 8 4 4 0 000-8zM6 20v-2a4 4 0 014-4h4a4 4 0 014 4v2"/>
  <path class="gear" d="M19.4 15l1.6 1-1 2-2-.5a6 6 0 00-1 1l.5 2-2 1-1-1.6a6 6 0 00-1.4 0l-1 1.6-2-1 .5-2a6 6 0 00-1-1l-2 .5-1-2 1.6-1a6 6 0 000-1.4l-1.6-1 1-2 2 .5a6 6 0 001-1l-.5-2 2-1 1 1.6a6 6 0 001.4 0l1-1.6 2 1-.5 2a6 6 0 001 1l2-.5 1 2-1.6 1a6 6 0 000 1.4z"/>
  <circle class="gear" cx="12" cy="12" r="3"/>
</svg>
