<?xml version="1.0" encoding="UTF-8"?>
<svg xmlns="http://www.w3.org/2000/svg" width="24" height="24" viewBox="0 0 24 24" fill="none" stroke="currentColor" stroke-width="2" stroke-linecap="round" stroke-linejoin="round">
    <style>
        .employee {
            transform-origin: center;
            transition: all 0.3s ease-in-out;
        }
        svg:hover .employee {
            transform: scale(1.1);
        }
        .chart {
            transition: transform 0.3s ease-in-out;
            transform-origin: bottom;
        }
        svg:hover .chart {
            transform: translateY(-2px);
        }
        .star {
            transition: all 0.3s ease-in-out;
            transform-origin: center;
        }
        svg:hover .star {
            transform: rotate(45deg) scale(1.2);
        }
    </style>
    <!-- Dipendente -->
    <g class="employee">
        <!-- Testa -->
        <circle cx="12" cy="7" r="3" class="stroke-current" fill="none"/>
        <!-- Corpo -->
        <path d="M8,21v-6a2,2 0 0,1 2,-2h4a2,2 0 0,1 2,2v6" class="stroke-current" fill="none"/>
        <!-- Spalle -->
        <line x1="6" y1="11" x2="18" y2="11" class="stroke-current"/>
    </g>
    <!-- Grafico Performance -->
    <g class="chart">
        <!-- Barre crescenti -->
        <line x1="7" y1="19" x2="7" y2="16" class="stroke-current"/>
        <line x1="10" y1="19" x2="10" y2="14" class="stroke-current"/>
        <line x1="13" y1="19" x2="13" y2="12" class="stroke-current"/>
        <line x1="16" y1="19" x2="16" y2="10" class="stroke-current"/>
    </g>
    <!-- Stella -->
    <g class="star">
        <path d="M16,4 L17,6 L19,6.5 L17.5,8 L18,10 L16,9 L14,10 L14.5,8 L13,6.5 L15,6 Z" class="stroke-current" fill="none"/>
    </g>
</svg>
