<?xml version="1.0" encoding="UTF-8"?>
<svg xmlns="http://www.w3.org/2000/svg" 
     fill="none" 
     viewBox="0 0 24 24" 
     stroke="currentColor"
     stroke-width="1.5"
     aria-hidden="true" 
     role="img">
<<<<<<< HEAD
    <!-- Cubo base -->
    <path stroke-linecap="round" 
          stroke-linejoin="round" 
          d="M12 3l7 4v10l-7 4-7-4V7l7-4z" />
    
    <!-- Linee interne -->
    <path stroke-linecap="round" 
          stroke-linejoin="round" 
          d="M12 3v8M5 7l7 4M19 7l-7 4" />
    
    <!-- Punto centrale -->
    <circle cx="12" cy="11" r="1" fill="currentColor" />
    
    <!-- Connessioni modulari -->
    <path stroke-linecap="round" 
          stroke-linejoin="round" 
          d="M12 15v4M9 17l3-2M15 17l-3-2" />
=======
    <!-- Griglia di componenti -->
    <rect x="4" y="4" width="7" height="7" rx="1" />
    <rect x="13" y="4" width="7" height="7" rx="1" />
    <rect x="4" y="13" width="7" height="7" rx="1" />
    <rect x="13" y="13" width="7" height="7" rx="1" />
    
    <!-- Elementi interni -->
    <path stroke-linecap="round" 
          stroke-linejoin="round" 
          d="M6 7h3M6 8.5h3" />
    <path stroke-linecap="round" 
          stroke-linejoin="round" 
          d="M15 7h3M15 8.5h3" />
    <circle cx="7.5" cy="16.5" r="1" fill="currentColor" />
    <path stroke-linecap="round" 
          stroke-linejoin="round" 
          d="M15 16h3M15 17.5h3" />
>>>>>>> a8f30311 (first)
</svg> 