<?xml version="1.0" encoding="UTF-8"?>
<svg xmlns="http://www.w3.org/2000/svg" viewBox="0 0 24 24" class="w-6 h-6">
  <style>
    @keyframes stack {
      0% { transform: translateY(0); }
      50% { transform: translateY(-2px); }
      100% { transform: translateY(0); }
    }
    @keyframes glow {
      0% { opacity: 0.8; }
      50% { opacity: 1; }
      100% { opacity: 0.8; }
    }
    .document {
      fill: currentColor;
      transform-origin: center;
      opacity: 0.8;
    }
    .euro {
      fill: currentColor;
      transform-origin: center;
    }
    svg:hover .document {
      animation: stack 2s infinite;
    }
    svg:hover .euro {
      animation: glow 1.5s infinite;
    }
  </style>
  <path class="document" d="M14 2H6c-1.1 0-2 .9-2 2v16c0 1.1.9 2 2 2h12c1.1 0 2-.9 2-2V8l-6-6zM6 20V4h7v5h5v11H6z"/>
  <path class="euro" d="M13 12h-3v-1h3v-1h-2c-1.1 0-2 .9-2 2s.9 2 2 2h2v-1h-3v-1h3z"/>
  <path class="document" d="M16 12h2v2h-2zM8 12h2v2H8z"/>
</svg>
