<?xml version="1.0" encoding="utf-8"?>
<!-- Generator: Adobe Illustrator 15.0.0, SVG Export Plug-In . SVG Version: 6.00 Build 0)  -->
<!DOCTYPE svg PUBLIC "-//W3C//DTD SVG 1.1//EN" "http://www.w3.org/Graphics/SVG/1.1/DTD/svg11.dtd">
<svg version="1.1" id="Livello_1" xmlns="http://www.w3.org/2000/svg" xmlns:xlink="http://www.w3.org/1999/xlink" x="0px" y="0px"
	 width="226.574px" height="23px" viewBox="130.209 13.218 226.574 23" enable-background="new 130.209 13.218 226.574 23"
	 xml:space="preserve">
<rect x="155.848" y="13.218" width="200.935" height="23"/>
<g>
	<path fill="#FFFFFF" d="M172.974,22.194c0,0.855-0.544,1.597-1.359,1.821c-0.359,0.102-0.663,0.135-1.244,0.135h-1.226v-3.762
		h1.396c0.917,0,1.396,0.105,1.786,0.396C172.718,21.095,172.974,21.625,172.974,22.194z M174.827,22.091
		c0-1.612-1.07-2.814-2.67-3.022c-0.44-0.05-1.123-0.084-1.766-0.084h-3.044v11.45h1.8v-4.927h1.43c1.443,0,2.397-0.279,3.127-0.911
		C174.421,23.98,174.827,23.084,174.827,22.091z"/>
	<path fill="#FFFFFF" d="M182.447,22.073c0,1.22-0.904,1.942-2.45,1.942h-1.375v-3.661h1.461c0.898,0,1.376,0.104,1.768,0.431
		C182.228,21.095,182.447,21.556,182.447,22.073z M185.354,30.434l-2.531-4.702c-0.292-0.532-0.596-0.792-1.108-0.931
		c1.532-0.258,2.585-1.439,2.585-2.898c0-1.514-0.985-2.593-2.566-2.818c-0.545-0.067-0.902-0.102-1.772-0.102h-3.147v11.45h1.807
		v-5.1h1.02c0.644,0,1.104,0.293,1.442,0.943l2.129,4.156H185.354z"/>
	<path fill="#FFFFFF" d="M195.645,24.822c0,2.49-1.479,4.257-3.59,4.257c-2.089,0-3.605-1.876-3.605-4.481
		c0-2.472,1.528-4.311,3.554-4.311c2.026,0,3.64,1.719,3.64,4.207L195.645,24.822L195.645,24.822z M197.513,24.544
		c0-3.398-2.212-5.802-5.304-5.802c-3.25,0-5.612,2.556-5.612,6.08c0,3.412,2.212,5.857,5.303,5.857
		C195.098,30.678,197.513,28.052,197.513,24.544z"/>
	<path fill="#FFFFFF" d="M204.929,30.434h-1.888l-4.386-11.45h1.923l3.469,9.524l3.571-9.524h1.766L204.929,30.434z"/>
	<path fill="#FFFFFF" d="M211.018,30.434v-11.45h1.819v11.45H211.018z"/>
	<path fill="#FFFFFF" d="M223.057,30.434l-5.7-8.463v8.463h-1.662v-11.45h1.767l5.733,8.511v-8.511h1.615v11.45H223.057z"/>
	<path fill="#FFFFFF" d="M236.629,29.828c-0.988,0.558-2.246,0.863-3.504,0.863c-3.504,0-5.968-2.404-5.968-5.837
		c0-3.556,2.723-6.112,6.496-6.112c1.14,0,2.078,0.187,3.28,0.653l-0.473,1.341c-0.271-0.09-0.494-0.157-0.629-0.19
		c-0.75-0.205-1.429-0.311-2.092-0.311c-2.825,0-4.714,1.804-4.714,4.499c0,2.595,1.771,4.414,4.289,4.414
		c0.507,0,1.034-0.069,1.546-0.209c0.578-0.139,0.903-0.277,1.649-0.666l0.631,1.25C236.92,29.677,236.75,29.782,236.629,29.828z"/>
	<path fill="#FFFFFF" d="M238.958,30.434v-11.45h1.82v11.45H238.958z"/>
	<path fill="#FFFFFF" d="M249.728,25.313h-3.546l1.752-4.51L249.728,25.313z M253.667,30.434l-4.694-11.45h-1.887l-4.674,11.45
		h1.769l1.496-3.773h4.556l1.495,3.773H253.667z"/>
	<path fill="#FFFFFF" d="M267.734,24.633c0,2.678-1.833,4.32-4.798,4.32h-1.634V20.41h1.701c1.842,0,2.828,0.339,3.661,1.269
		C267.378,22.466,267.734,23.466,267.734,24.633z M269.607,24.611c0-2.572-1.6-4.784-3.829-5.32
		c-0.905-0.222-1.786-0.307-3.111-0.307h-3.167v11.45h2.856c2.557,0,3.792-0.327,5.072-1.303
		C268.8,28.065,269.607,26.413,269.607,24.611z"/>
	<path fill="#FFFFFF" d="M271.92,30.434v-11.45h1.819v11.45H271.92z"/>
	<path fill="#FFFFFF" d="M285.097,20.41v10.024h-1.808V20.41h-3.639v-1.426h9.048v1.426H285.097z"/>
	<path fill="#FFFFFF" d="M296.043,22.073c0,1.22-0.898,1.942-2.448,1.942h-1.37v-3.661h1.46c0.898,0,1.372,0.104,1.771,0.431
		C295.823,21.095,296.043,21.556,296.043,22.073z M298.958,30.434l-2.533-4.702c-0.292-0.532-0.602-0.792-1.106-0.931
		c1.532-0.258,2.587-1.439,2.587-2.898c0-1.514-0.986-2.593-2.575-2.818c-0.545-0.067-0.902-0.102-1.764-0.102h-3.147v11.45h1.806
		v-5.1h1.012c0.65,0,1.108,0.293,1.45,0.943l2.121,4.156H298.958z"/>
	<path fill="#FFFFFF" d="M300.709,30.434l0.012-11.45h6.639v1.426h-4.848v3.347h4.585v1.39h-4.585v3.791h5.166v1.496H300.709
		L300.709,30.434z"/>
	<path fill="#FFFFFF" d="M314.978,30.434h-1.887l-4.392-11.45h1.921l3.471,9.524l3.57-9.524h1.765L314.978,30.434z"/>
	<path fill="#FFFFFF" d="M321.065,30.434v-11.45h1.819v11.45H321.065z"/>
	<path fill="#FFFFFF" d="M327.965,30.678c-1.122,0-1.6-0.07-2.873-0.379l0.287-1.43c1.243,0.222,1.638,0.262,2.469,0.262
		c1.855,0,3.059-0.762,3.059-1.91c0-0.824-0.505-1.269-2.38-2.044c-1.24-0.511-1.832-0.858-2.382-1.372
		c-0.492-0.464-0.793-1.202-0.793-1.903c0-1.89,1.732-3.143,4.383-3.143c1.036,0,1.46,0.052,2.538,0.343l-0.271,1.34
		c-0.942-0.189-1.313-0.224-2.094-0.224c-1.669,0-2.723,0.598-2.723,1.562c0,0.685,0.549,1.134,2.077,1.752
		c1.207,0.48,2.123,1.011,2.718,1.527c0.472,0.433,0.815,1.267,0.815,2.045C332.796,29.244,330.858,30.678,327.965,30.678z"/>
	<path fill="#FFFFFF" d="M343.548,24.822c0,2.49-1.482,4.257-3.594,4.257c-2.089,0-3.6-1.876-3.6-4.481
		c0-2.472,1.531-4.311,3.555-4.311c2.021,0,3.639,1.719,3.639,4.207V24.822L343.548,24.822z M345.412,24.544
		c0-3.398-2.203-5.802-5.301-5.802c-3.252,0-5.615,2.556-5.615,6.08c0,3.412,2.213,5.857,5.305,5.857
		C343.004,30.678,345.412,28.052,345.412,24.544z"/>
</g>
<g>
	<rect x="130.209" y="13.218" fill="#FFFFFF" width="23" height="23"/>
	<g>
		<rect x="141.724" y="27.02" width="2.298" height="2.293"/>
		<polygon fill="#F18E00" points="153.209,36.218 153.209,13.218 130.209,13.218 130.209,22.417 134.811,22.417 134.811,20.118 
			139.407,20.118 139.407,17.816 144.011,17.816 144.011,15.516 146.312,15.516 146.312,20.118 148.611,20.118 148.611,24.715 
			150.91,24.715 150.91,29.314 148.611,29.314 148.611,31.62 144.011,31.62 144.011,33.915 141.709,33.915 141.709,31.62 
			139.407,31.62 139.407,29.314 137.11,29.314 137.11,31.62 134.811,31.62 134.811,29.314 132.511,29.314 132.511,24.715 
			130.209,24.715 130.209,36.218 		"/>
	</g>
</g>
</svg>
