<?xml version="1.0" encoding="UTF-8"?>
<svg xmlns="http://www.w3.org/2000/svg" width="24" height="24" viewBox="0 0 24 24" fill="none">
    <style>
        .money-path {
            transform-origin: center;
            transition: all 0.3s ease-in-out;
        }
        svg:hover .money-path {
            transform: scale(1.1) rotate(5deg);
        }
        .coin {
            transform-origin: center;
            transition: all 0.3s ease-in-out;
        }
        svg:hover .coin {
            transform: translateY(-2px);
        }
    </style>
    <g class="money-path">
        <!-- Banconota -->
        <path class="fill-current" opacity="0.2" d="M20 4H4c-1.1 0-2 .9-2 2v12c0 1.1.9 2 2 2h16c1.1 0 2-.9 2-2V6c0-1.1-.9-2-2-2z"/>
        <path class="fill-current" d="M20 4H4c-1.1 0-2 .9-2 2v12c0 1.1.9 2 2 2h16c1.1 0 2-.9 2-2V6c0-1.1-.9-2-2-2zm0 14H4V6h16v12z"/>
    </g>
    <!-- Moneta centrale -->
    <g class="coin">
        <circle class="fill-current" opacity="0.2" cx="12" cy="12" r="3"/>
        <path class="fill-current" d="M12 13.5c.8 0 1.5-.7 1.5-1.5s-.7-1.5-1.5-1.5-1.5.7-1.5 1.5.7 1.5 1.5 1.5z"/>
        <path class="fill-current" d="M12 9c1.7 0 3 1.3 3 3s-1.3 3-3 3-3-1.3-3-3 1.3-3 3-3m0-1c-2.2 0-4 1.8-4 4s1.8 4 4 4 4-1.8 4-4-1.8-4-4-4z"/>
    </g>
</svg>
