<?xml version="1.0" encoding="UTF-8"?>
<svg xmlns="http://www.w3.org/2000/svg" viewBox="0 0 24 24" class="w-6 h-6">
  <style>
    @keyframes team {
      0% { transform: translateX(0); }
      50% { transform: translateX(2px); }
      100% { transform: translateX(0); }
    }
    @keyframes pulse {
      0% { opacity: 0.8; }
      50% { opacity: 1; }
      100% { opacity: 0.8; }
    }
    .person {
      fill: currentColor;
      transform-origin: center;
      opacity: 0.8;
    }
    .group {
      fill: currentColor;
      transform-origin: center;
    }
    svg:hover .person {
      animation: team 1.5s infinite;
    }
    svg:hover .group {
      animation: pulse 2s infinite;
    }
  </style>
  <path class="group" d="M12 12.75c1.63 0 3.07.39 4.24.9 1.08.48 1.76 1.56 1.76 2.73V18H6v-1.61c0-1.18.68-2.26 1.76-2.73 1.17-.52 2.61-.91 4.24-.91z"/>
  <path class="person" d="M12 12c1.93 0 3.5-1.57 3.5-3.5S13.93 5 12 5 8.5 6.57 8.5 8.5 10.07 12 12 12z"/>
  <path class="group" d="M18 10c1.66 0 3-1.34 3-3s-1.34-3-3-3-3 1.34-3 3 1.34 3 3 3zM6 10c1.66 0 3-1.34 3-3S7.66 4 6 4 3 5.34 3 7s1.34 3 3 3z"/>
</svg>
