<?xml version="1.0" encoding="UTF-8"?>
<svg xmlns="http://www.w3.org/2000/svg" viewBox="0 0 24 24" class="w-6 h-6">
  <style>
    @keyframes count {
      0% { transform: translateY(0); }
      50% { transform: translateY(-2px); }
      100% { transform: translateY(0); }
    }
    @keyframes shine {
      0% { opacity: 0.8; }
      50% { opacity: 1; }
      100% { opacity: 0.8; }
    }
    .euro {
      fill: currentColor;
      transform-origin: center;
      opacity: 0.8;
      transition: all 0.3s ease;
    }
    .circle {
      fill: currentColor;
      transform-origin: center;
    }
    svg:hover .euro {
      animation: count 1.5s infinite;
    }
    svg:hover .circle {
      animation: shine 2s infinite;
    }
  </style>
  <circle class="circle" cx="12" cy="12" r="10"/>
  <path class="euro" d="M15.5 11.5h-5.25c.13-.97.63-1.73 1.38-2.25H15.5V7.5h-2.88c-.99 0-1.95.22-2.82.66-.87.44-1.6 1.05-2.17 1.84H6.5v1.5h.82c-.04.25-.07.5-.07.75s.03.5.07.75H6.5v1.5h1.13c.57.79 1.3 1.4 2.17 1.84.87.44 1.83.66 2.82.66H15.5V15h-3.87c-.75-.52-1.25-1.28-1.38-2.25h5.25V11.5z"/>
</svg>
